<?xml version="1.0" encoding="utf-8"?>
<!-- Generator: Adobe Illustrator 16.0.3, SVG Export Plug-In . SVG Version: 6.00 Build 0)  -->
<!DOCTYPE svg PUBLIC "-//W3C//DTD SVG 1.0//EN" "http://www.w3.org/TR/2001/REC-SVG-20010904/DTD/svg10.dtd">
<svg version="1.0" id="Layer_1" xmlns="http://www.w3.org/2000/svg" xmlns:xlink="http://www.w3.org/1999/xlink" x="0px" y="0px"
	 width="599.02px" height="645.176px" viewBox="0 0 599.02 645.176" enable-background="new 0 0 599.02 645.176"
	 xml:space="preserve">
<path fill="#FEFEFE" d="M1,643.921c196.47,0,392.94,0.002,589.411-0.009c8.307-0.001,7.506,0.801,7.506-7.508
	c0.01-211.802,0.01-423.603,0.01-635.404c0.309,0.219,1.043-0.506,1.01,0.5c-0.043,1.332-0.01,2.667-0.01,4
	c0,211.642-0.012,423.28,0.094,634.921c0.002,3.749-0.846,4.596-4.594,4.594c-196.309-0.106-392.617-0.091-588.926-0.155
	C4.036,644.857,2.109,646.012,1,643.921z"/>
<path fill="#0E2232" d="M496.208,117.895c14.133,15.164,25.975,31.973,35.869,50.161c25.883,47.581,38.674,98.229,35.629,152.572
	c-0.055,0.986,0.078,1.982,0.123,2.976c-0.396,6.249-0.52,12.552-1.551,18.714c-3.027,18.1-6.1,36.209-13.551,53.199
	c-1.445,3.298-3.283,6.334-5.277,9.3c-0.688,0.447-0.76,1.104-0.627,1.831c-1.949,5.795-4.352,11.36-8.195,16.197
	c-0.25-0.017-0.494,0.018-0.73,0.099c-3.682,1.578-10.48,0.109-12.428-3.026c-1.369-2.205-3.141-3.755-5.295-5.019
	c-3.857-3.594-5.799-8.468-8.539-12.809c-10.119-16.024-20.496-31.884-31.059-47.619c-18.535-27.608-36.041-55.87-53.615-84.091
	c-17.699-28.788-36.348-56.974-54.025-85.774c-12.887-20.995-25.236-42.333-39.15-62.675
	c-10.988-16.068-21.924-32.174-32.973-48.198c-0.463-1.378-0.607-3.605-2.116-3.58c-2.459,0.041-2.802,2.827-3.957,4.525
	c-10.94,17.125-22.93,33.535-34.083,50.521c-17.278,26.317-33.754,53.125-50.217,79.947c-7.055,11.496-14.604,22.679-21.61,34.205
	c-18.918,29.521-38.908,58.351-57.134,88.321c-3.196,5.257-6.682,10.33-9.795,15.639c-18.005,25.966-35.922,51.988-51.535,80.668
	c4.735-4.539,7.551-9.393,11.111-13.625c1.262-1.501,1.987-4.071,4.864-3.303c1.418,3.786-1.123,7.281-0.761,11.107
	c0.295,3.125,1.014,5.44,3.779,6.975c4.625,2.563,8.429,5.804,9.976,11.188c0.505,1.762,1.995,3.104,3.599,4.016
	c5.372,3.053,10.052,7.037,14.876,10.834c1.979,1.557,4.174,2.766,6.639,3.31c4.274,0.942,7.673,3.29,10.166,6.728
	c2.58,3.562,5.636,4.514,9.92,3.716c5.791-1.077,7.182-0.126,8.779,4.396c-0.125,1.052-3.601,1.571-0.499,3.148
	c1.207,2.021,3.667,3.04,4.374,5.461c3.637,3.636,5.166,8.627,8.161,12.654c1.896,2.552,4.294,4.537,7.467,5.596
	c3.393,1.131,5.791,3.863,8.462,6.091c5.84,4.869,12.634,7.168,20.058,7.83c-0.744-2.133-0.71-2.183-1.49-2.719
	c-14.049-9.681-27.201-20.598-41.427-30.036c-2.042-1.355-4.214-2.678-5.434-4.983c-0.422-0.954-0.579-1.884,0.235-2.729
	c3.407-2.48,7.089-2.151,10.97-1.369c16.739,3.371,28.535,13.599,36.347,28.001c5.472,10.088,14.438,12.503,24.084,14.754
	c1.608,0.375,2.437-0.386,3.116-1.747c0.712-1.427,1.29-3.264,3.591-2.474c6.215,8.7,10.99,18.276,16.593,27.351
	c0.213,1.813,0.62,3.595,0.582,5.446c-0.128,6.289-3.725,8.721-9.085,5.342c-5.364-3.382-11.163-5.949-16.431-9.408
	c-7.125-4.68-14.713-8.1-22.616-11.353c-10.528-4.331-21.26-9.706-28.87-18.189c-4.487-5.003-9.364-7.322-14.961-9.556
	c-6.503-2.599-12.705-5.868-18.909-9.069c-8.978-4.634-18.927-5.947-28.532-9.147c-0.164,1.774,1.324,2.213,2.114,3.072
	c1.209,1.317,2.191,2.807,1.009,4.436c-1.309,1.805-3.208,1.39-4.964,0.52c-1.198-0.593-2.189-1.516-3.329-2.205
	c-6.609-4.001-13.033-8.244-18.324-13.974c-13.564-15.77-23.93-33.617-33.041-52.157c-24.18-49.205-29.664-101.104-21.583-154.874
	c6.718-44.708,24.218-84.96,49.973-121.842c0.56-0.803,1.266-1.503,1.904-2.25c2.158-2.039,3.424-4.855,5.743-6.735
	c3.369-2.729,6.216-1.818,7.39,2.361c0.849,3.025,0.231,5.81-1.415,8.519c-3.425,5.634-7.24,11.043-9.718,17.232
	c-0.81,2.022-1.497,4-1.567,6.178c-1.819,5.417-5.192,10.03-7.928,14.955c-17.562,31.615-27.611,65.505-30.823,101.434
	c-3.179,35.562,0.147,70.425,12.029,104.277c0.938,2.673,1.818,5.375,3.278,7.809c0.869,1.448,1.474,3.881,3.927,2.688
	c2.239-1.089,3.674-3.035,2.655-5.731c-1.53-4.044-3.596-7.861-5.202-11.881c-0.863-2.162-1.932-4.243-2.393-6.55
	c-0.296-1.844-0.174-3.662,0.614-5.371c9.466-20.509,16.975-41.837,26.163-62.469c6.354-14.267,12.796-28.491,19.309-42.682
	c4.902-9.031,8.376-18.822,14.416-27.261c3.077-3.767,6.623-2.34,9.84-0.526c3.228,1.817,1.977,4.836,1.239,7.573
	c-0.26,0.965-0.624,1.894-0.849,2.858c-1.627,5.65-4.912,10.458-7.854,15.45c-2.431,4.126-4.547,8.418-6.698,13.368
	c9.005-4.224,17.478-7.644,23.199-15.908c5.642-8.152,12.045-15.805,17.791-23.918c4.562-6.738,9.459-13.241,14.08-19.939
	c2.302-3.376,4.802-6.614,6.98-10.079c2.363-3.891,5.732-7.037,8.072-10.947c1.453-2.016,2.847-4.071,4.168-6.178
	c3.538-4.479,6.558-9.326,9.883-13.957c4.464-6.308,8.564-12.864,13.108-19.121c0.848-1.168,2.627-2.335,1.226-4.261
	c-3.272-2.327-3.356-5.517-2.296-8.901c1.043-3.331,2.696-6.402,4.382-9.446c1.094-1.773,2.943-2.601,5.02-3.929
	c-7.289,3.898-14.724,6.464-21.098,11.065c-22.274,13.174-41.059,30.175-55.41,51.738c-13.855,20.818-26.5,42.377-36.697,65.267
	c-2.167,4.861-5.103,9.374-6.583,14.545c-13.106,29.558-26.044,59.181-37.492,89.43c-0.586,1.55-1.14,3.125-1.953,4.569
	c-1.028,1.827-2.353,2.865-4.365,1.139c-4.17-8.338-5.134-17.487-6.379-26.49c-3.344-24.174-2.667-48.337,1.164-72.414
	c0.515-3.239,0.703-6.647,2.772-9.454c1.36-0.457,2.98,0.556,3.644-2.317c0.936-4.053,4.065-7.02,8.167-8.745
	c3.952-1.664,8.126-2.986,11.438-5.885c2.402-2.103,4.188-4.628,5.195-7.736c0.601-1.858,1.326-3.784,3.234-4.807
	c3.429-0.687,2.919-4.329,4.655-6.296c1.292-2.644,3.253-4.969,3.759-7.984c2.526-7.313,7.68-13.114,11.491-19.685
	c14.417-24.85,32.142-47.14,53.362-66.586c11.53-9.248,23.642-17.624,36.599-24.777c2.757-1.523,5.572-2.911,8.358-4.355
	c1.028-0.338,2.005-0.8,2.968-1.297c-1.452,0.748-3.057,1.161-4.454,2.041c-14.719,7.258-28.738,15.613-41.345,26.202
	c-1.823,1.01-3.102,3.563-5.812,2.066c0.867-4.301,2.919-8.08,5.84-11.229c2.749-2.962,4.611-6.521,7.181-9.58
	c0.849-1.011,1.683-2.319,0.608-3.596c-0.91-1.081-2.168-0.409-3.262-0.075c-0.796,0.242-1.536,0.65-2.33,0.9
	c-5.044,1.588-6.765,0.384-7.413-5.172c1.206-3.007,3.938-4.475,6.412-6.089c36.046-23.516,75.135-38.982,118.237-42.483
	c29.157-2.367,57.866,1.502,85.872,10.128c40.383,12.438,74.973,34.311,104.166,64.666c38.26,39.779,62.109,87.028,71.789,141.346
	c2.043,11.471,2.363,23.139,2.773,34.813c0.531,15.033-0.352,29.891-2.402,44.737c-2.051,14.826-6.166,28.975-13.422,42.148
	c-1.525,2.771-3.027,5.68-1.037,8.934c2.053,3.362,4.297,3.451,6.371,0.182c0.984-1.551,1.66-3.266,2.271-4.995
	c7.332-20.667,12.15-41.877,13.977-63.76c3.178-38.064-1.027-75.211-14.471-111.04c-12.297-32.771-30.424-62.127-53.381-88.559
	c-17.313-19.931-37.666-36.165-59.84-50.275c-1.953-1.242-4.096-2.277-5.49-4.254c-0.93-3.262-3.309-5.207-6.074-6.902
	c-1.871-1.148-3.912-2.71-2.377-5.195c1.611-2.609,4.494-2.62,6.566-0.958c3.006,2.409,5.781,4.371,9.846,2.883
	c0.932-0.341,1.934,0.396,2.771,0.929c13.68,8.735,27.613,16.931,39.678,28.164C477.776,101.198,486.942,109.617,496.208,117.895z"
	/>
<path fill="#091F2D" d="M231.327,506.799c-0.633,0.516-1.798,1.013-1.817,1.55c-0.245,6.91-4.079,4.894-7.914,3.388
	c-1.517-0.596-3.227-0.7-4.847-1.034c-7.837-1.614-13.318-6.058-17.065-13.187c-3.806-7.241-8.831-14.441-15.274-18.74
	c-9.116-6.081-19.364-11.978-31.546-8.695l0.011,0.023c-1.111-4.735-4.666-4.842-8.192-3.809c-4.773,1.396-8.107,0.619-10.949-3.866
	c-2.203-3.478-5.552-6.022-10.082-6.595c-2.638-0.335-4.847-1.94-6.974-3.618c-4.664-3.682-9.021-7.813-14.439-10.444
	c-2.22-1.079-4.242-2.925-4.544-5.004c-0.883-6.08-5.584-8.342-9.955-10.823c-3.129-1.776-3.596-4.165-3.791-7.387
	c-0.25-4.114,0.888-7.813,2.044-11.586c-1.004-3.311,1.507-5.261,3.08-7.435c9.672-13.356,18.905-27.031,28.869-40.18
	c0.408-0.538,0.581-1.195,0.822-1.816c8.536-11.473,16.917-23.064,25.594-34.437c13.022-17.067,26.008-34.165,39.42-50.931
	c3.32-4.15,7.277-7.785,10.032-12.392c0.346-0.617,0.787-1.158,1.292-1.646c2.448-2.004,4.766-4.131,6.374-6.916
	c30.145-35.401,57.642-72.818,84.455-110.759c2.787-3.943,5.725-7.773,8.664-11.604c1.971-2.569,3.977-2.606,6.259-0.416
	c1.814,1.743,3.324,3.729,4.777,5.755c22.809,31.796,47.012,62.544,70.49,93.836c10.988,14.646,22.32,29.034,33.6,43.463
	c8.055,10.456,16.568,20.536,24.951,30.725c2.51,3.05,5.281,5.936,6.525,9.835c0.99,4.95,2.564,9.527,6.439,13.154
	c2.998,2.808,3.795,6.976,5.143,10.649c1.391,3.794-1.406,6.165-5.338,4.598c-8.109-3.237-15.545-7.654-20.688-14.939
	c-3.199-4.527-7.6-6.938-12.691-7.978c-5.951-1.213-10.121-4.522-13.592-9.251c-3.717-5.06-7.004-10.437-11.178-15.157
	c-3.057-2.938-4.223-7.017-6.35-10.517c-3.582-5.575-6.285-11.647-9.813-17.254c-3.666-6.28-7.217-12.631-11.139-18.76
	c-4.563-7.289-8.695-14.857-14.111-21.588c-4.072-3.831-5.854-9.122-8.773-13.69c-1.861-2.914-3.629-5.915-6.088-8.404
	c-8.521-15.75-19.922-29.599-29.572-44.604c-1.154-1.796-2.164-3.734-3.934-5.06c-0.951-0.858-1.891-1.769-3.078-0.3
	c-8.503,13.408-17.5,26.465-26.622,39.438c-6.123,8.604-12.116,17.295-17.855,26.162c-4.514,6.542-8.468,13.445-12.974,19.99
	c-3.043,4.968-6.051,9.956-9.102,14.919c-3.971,6.478-7.73,13.071-11.075,19.897c-3.899,6.038-6.681,12.655-9.89,19.051
	c-4.42,8.146-7.722,16.818-11.868,25.093c-2.866,5.63-5.336,11.434-7.642,17.311c-0.912,2.325-1.857,4.636-3.587,6.514
	c-0.33,0.358-0.703,0.671-1.098,0.952c-3.95,5.055-5.748,11.185-8.241,16.929c-7.477,17.225-16.69,33.738-21.454,52.438
	c3.69-3.633,6.605-7.645,9.782-11.405c3.328-3.938,6.471-8.04,9.714-12.054c2.101-2.602,4.271-5.146,7.968-5.521
	c2.841-0.288,5.161,0.846,7.452,2.326c3.458,2.236,6.957,2.965,10.681,0.325c1.617-1.146,3.732-2.105,5.441-0.229
	c1.533,1.686,0.288,3.437-0.59,5.039c-4.929,8.988-8.506,18.782-15.852,26.331c-1.407,1.446-2.143,3.354-2.274,5.428
	c-0.049,0.33-0.041,0.733-0.246,0.956c-5.125,5.53-2.474,10.091,1.175,15.244c9.606,13.566,18.878,27.375,28.337,41.049
	c1.028,1.485,2.369,2.848,2.104,4.894C222.519,491.844,229.081,498.128,231.327,506.799z"/>
<path fill="#FCFCFC" d="M218.724,484.029c-12.715-16.859-24.013-34.703-36.096-52.003c-1.222-1.75-1.29-3.186,0.167-4.887
	c1.275-1.489,2.201-3.278,3.281-4.936c2.557-6.483,7.717-11.169,11.846-16.487c31.116-40.072,61.053-81.021,91.12-121.874
	c1.281-1.74,2.563-3.487,4.189-4.943c2.009-1.404,3.709-3.606,6.658-2.612c6.772,4.95,10.444,12.449,15.192,18.995
	c30.299,41.778,61.359,82.983,92.74,123.95c1.322,1.725,2.646,3.425,3.441,5.473c2.207,3.524,2.16,7.044-0.016,10.562
	c-4.494,8.519-10.396,16.133-15.631,24.177c-6.055,9.3-12.184,18.552-18.656,27.568c-1.158,1.61-2.191,3.327-3.885,4.479
	c-1.271,1.068-2.516,2.158-3.748,3.265c-2.002,1.795-4.271,3.589-7.1,2.096c-2.701-1.429-3.787-4.136-3.85-7.091
	c-0.117-5.511,1.74-10.75,2.418-16.165c1.088-8.681,1.793-17.397,2.582-26.099c0.52-5.737,1.664-11.467,1.158-17.301
	c-0.174-2.004-0.053-4.001-1.787-5.438c-2.836-2.004-5.9-3.709-8.322-6.258c-8.238-12.538-17.963-23.977-26.744-36.118
	c-8.393-11.604-17.293-22.837-25.504-34.573c-3.398-4.859-4-5.003-7.469-0.474c-11.545,15.07-22.86,30.316-34.276,45.485
	c-4.707,6.253-9.839,12.172-14.389,18.545c-1.756,2.742-4.152,4.955-6.19,7.469c-1.978,1.524-3.379,4.228-6.587,3.27
	c-4.703,0.427-4.365,4.381-4.163,7.153c0.998,13.727,0.948,27.538,3.164,41.168c0.585,3.601,0.7,7.355,1.851,10.763
	c1.305,3.858-0.228,6.24-3.089,7.923c-3.201,1.881-6.11-0.054-8.651-1.892C221.102,486.291,220.551,484.422,218.724,484.029z"/>
<path fill="#0E202F" d="M233.27,422.103c2.465-0.674,4.05-2.587,5.872-4.168c1.876-1.389,3.369-0.54,4.622,0.92
	c1.154,1.343,2.104,2.855,3.123,4.307c15.655,24.249,31.597,48.312,47.855,72.157c2.609,4.397,3.25,0.195,4.55-1.061
	c17.835-23.874,34.064-48.879,51.621-72.945c1.064-1.461,1.563-3.858,4.223-3.492c2.615,1.705,5.23,3.41,7.846,5.116
	c1.986,1.085,2.615,2.759,2.492,4.985c-0.637,11.554-1.654,23.067-2.748,34.589c-0.799,8.422-2.326,16.673-3.543,25.003
	c-1.398,9.574-5.305,18.071-9.701,26.514c-10.15,19.49-22.254,37.838-32.996,56.974c-4.559,8.118-9.416,16.07-13.553,24.424
	c-0.518,1.046-1.105,2.043-1.826,2.967c-3.264,4.188-3.349,4.18-6.028-0.771c-9.187-15.999-18.42-31.971-27.545-48.003
	c-8.146-14.312-16.325-28.596-23.313-43.546c-6.278-13.431-10.171-27.392-11.516-42.129c-1.089-11.938-1.777-23.891-2.029-35.876
	C230.62,425.537,231.231,423.584,233.27,422.103z"/>
<path fill="#132535" d="M91.984,112.826c-14.799,16.709-26.656,35.413-37.476,54.855c-10.5,18.868-19.185,38.504-24.642,59.395
	c-14.229,54.477-15.469,109.055,3.213,162.627c28.337,81.266,82.038,139.448,161.965,172.665
	c25.365,10.542,51.558,17.975,78.966,20.73c2.329,0.233,4.156,0.967,5.377,3.037c0.845,1.433,1.845,2.773,2.688,4.207
	c1.338,2.271,2.603,4.585,4.222,7.454c-20.399-2.351-40.121-4.682-59.432-9.766c-53.928-14.197-100.924-40.436-139.483-80.938
	C26.424,443.061-0.161,366.846,7.51,278.734c1.022-11.739,2.727-23.38,5.181-34.907c3.606-0.395,3.471,2.428,3.699,4.595
	c0.443,4.213-0.899,8.196-1.795,11.553c4.763-11.688,7.347-24.804,12.25-37.169c2.64-6.659,3.916-13.728,4.715-20.863
	c0.631-5.639,3.38-10.606,6.585-14.929c5.7-7.688,8.572-16.437,11.389-25.302c0.556-1.75,1.127-3.483,1.969-5.116
	c2.4-4.654,6.291-8.973,3.294-14.824l-0.06,0.095c1.62-1.328,3.471-2.51,3.179-5.042c1.535-2.324,3.069-4.648,4.604-6.972
	c2.46-1.851,3.835-4.501,5.268-7.111l-0.082,0.099c0.894-0.397,1.405-1.71,2.486-1.472c5.598,1.236,8.414-2.778,11.741-5.976
	c4.439-4.266,8.44-8.783,11.013-14.503c1.488-3.31,4.369-5.401,7.825-6.529c1.705-0.557,3.33-0.274,4.437,1.313
	c1.198,1.719,0.448,3.127-0.844,4.403c-2.836,2.8-5.383,5.943-8.59,8.294C94.07,109.62,93.003,111.136,91.984,112.826z"/>
<path fill="#17293A" d="M91.984,112.826c-0.084-2.259,0.223-3.92,2.835-5.063c3.837-1.68,6.106-5.471,9.096-8.303
	c1.065-1.01,1.376-2.297,0.262-3.523c-1.108-1.223-2.336-0.751-3.632-0.222c-4.313,1.766-6.762,5.358-8.344,9.346
	c-2.966,7.477-10.001,11.131-14.901,16.766c-2.923,3.361-6.485-0.142-9.593,1.014c11.361-16.365,24.734-31.055,40.022-43.652
	c80.143-66.045,170.563-88.729,271.453-60.752c59.104,16.39,106.723,51.034,144.814,98.967
	c13.529,17.024,25.195,35.172,34.545,54.799c1.35,2.832,3.027,5.558,3.525,8.744c-1.127,0.616-2.137,0.048-2.521-0.813
	c-1.959-4.392-5.738-7.556-7.514-12.196c-1.764-4.608-5.654-8.161-8.945-11.803c-6.428-7.108-11.137-15.683-18.709-21.793
	c-2.381-1.921-4.154-4.704-7.543-5.14c-18.275-22.189-38.178-42.709-61.945-59.111C384.684,21.642,308.124,8.386,225.936,30.575
	c-49.944,13.485-92.954,39.437-128.621,77.183C95.636,109.534,94.329,111.737,91.984,112.826z"/>
<path fill="#122636" d="M520.788,413.996c1.705,0.637,3.57,1.276,4.422,2.933c1.775,3.443,3.545,6.31,8.207,4.233
	c1.801-0.802,2.178,3.14,4.479,1.78c-1.35,3.258-2.699,6.514-4.051,9.771c-0.563,4.452-3.203,7.987-5.391,11.656
	c-9.586,16.077-21.25,30.537-33.676,44.54c-22.955,25.867-51.031,44.642-81.426,60.234c-27.787,14.256-57.533,22.741-88.188,28.226
	c-1.463,0.263-3.082,0.771-4.25-0.514c-1.066-1.171-0.459-2.571,0.223-3.723c5.77-9.742,11.109-19.741,17.422-29.156
	c0.74-1.103,1.602-2.156,3.063-2.379c6.209,5.608,11.166,3.292,17.762-0.726c9.428-5.741,18.26-12.729,28.77-16.666
	c2.896-1.088,4.9-3.377,7.01-5.479c3.061-3.05,2.885-3.839-1.033-5.41c-0.771-0.31-1.572-0.529-2.191-1.124
	c-0.623-1.801,0.873-2.332,1.922-2.993c16.086-10.149,30.904-21.95,45.129-34.535c0.373-0.329,0.793-0.604,1.219-0.871
	c1.307-0.567,2.488-1.882,4.094-0.72c1.102,1.797,0.484,3.595-0.213,5.27c-1.25,3.008,0.35,4.295,2.813,5.245
	c2.625,1.013,5.219,0.744,7.84-0.008c3.525-1.01,7.092-1.825,10.77-2.076c4.016-0.274,6.637,0.89,7.316,5.467
	c0.734,4.936,3.18,5.883,7.188,2.816c6.992-5.354,14.014-10.673,19.955-17.307c3.82-4.265,4.799-10.235,9.223-14.11
	c1.459-1.277,0.688-3.262-1.465-2.616c-4.732,1.42-9.492-1.079-14.303,0.757c-3.076,1.175-5.484-2.034-3.865-5.287
	c2.258-4.539,3.422-9.274,4.639-14.128c1.195-4.773,5.822-6.055,9.992-7.313c3.357-1.012,6.883-0.871,10.898-0.787
	c-1.742-4.465-3.531-8.5-4.967-12.658c-0.803-2.328-2.064-4.642-0.627-7.18c2.586-1.073,3.465,1.191,4.482,2.578
	c2.996,4.071,6.133,8.055,8.689,12.431c0.645,0.232,0.063,1.811,1.385,1.234C523.381,421.454,519.368,418.497,520.788,413.996z"/>
<path fill="#132536" d="M82.062,166.15c-0.202-5.277,2.889-9.454,4.942-13.896c1.717-3.715,4.28-7.067,6.694-10.419
	c1.074-1.49,1.302-2.978,1.294-4.664c-0.009-2.063-0.212-4.51-2.117-5.232c-2.09-0.792-4.159,0.783-5.49,2.52
	c-1.321,1.724-2.429,3.577-4.529,4.479c12.935-19.416,28.653-36.33,47.076-50.542c32.387-24.984,67.882-43.857,107.977-53.417
	c33.813-8.063,67.837-9.597,102.142-3.874c60.338,10.066,110.758,38.549,152.791,82.521c1.246,1.306,2.25,2.84,3.367,4.269
	c-8.494-4.185-13.641-12.377-21.17-17.696c-10.094-7.13-17.225-17.804-28.795-23.3c-4.699-2.232-8.992-5.558-13.584-8.229
	c-3.354-1.949-5.908-5.116-10.451-2.788c-1.404,0.723-3.27-0.056-4.211-1.812c-0.637-1.188-1.439-2.333-2.771-2.748
	c-1.613-0.503-3.564-0.855-4.521,0.844c-1.162,2.065,0.762,2.946,2.23,3.645c3.279,1.557,6.227,3.287,5.854,7.615
	c-2.742,0.971-4.873-0.678-6.992-1.836c-29.902-16.33-62.135-24.501-95.871-27.091c-57.331-4.401-109.299,11.203-156.938,42.642
	c-28.964,19.114-51.887,44.079-70.899,72.88C86.521,162.393,85.634,165.659,82.062,166.15z"/>
<path fill="#112537" d="M85.603,470.062c2.608,1.155,5.038,2.52,6.562,5.094c0.323,0.546,0.877,1.284,1.388,1.338
	c5.941,0.626,9.221,5.622,13.859,8.363c1.374,0.813,2.887,1.783,3.975,0.327c1.251-1.676-0.393-2.625-1.731-3.384
	c-0.58-0.328-1.18-0.621-1.76-0.947c-1.482-0.835-2.324-2.108-1.571-3.718c0.829-1.772,2.524-1.266,3.945-0.872
	c16.783,4.646,32.643,11.588,48.173,19.364c1.754,0.879,3.729,1.409,5.662,1.816c3.104,0.654,5.213,1.661,6.23,5.326
	c0.982,3.539,4.845,5.456,7.92,7.148c10.493,5.772,19.839,13.764,32.135,16.19c3.186,0.629,6.012,3.408,8.846,5.421
	c6.493,4.612,14.177,7.11,20.515,12.102c4.242,3.339,7.144,1.393,7.211-4.165c0.022-1.834-0.117-3.682,0.958-5.318
	c8.963,13.291,17.247,26.988,25.699,41.739c-14.393-2.319-27.465-5.374-40.43-8.9c-58.864-16.012-107.379-48.004-146.257-94.842
	C86.411,471.517,86.043,470.76,85.603,470.062z"/>
<path fill="#122333" d="M516.836,129.2c0.672-1.396,1.445-2.303,2.965-0.842c5.209,5.012,11.219,9.26,15.283,15.37
	c4.789,7.204,11.123,13.154,16.129,20.147c3.188,4.451,5.807,9.318,8.508,14.098c0.656,1.156,0.893,2.499,2.348,2.971
	c9.939,20.825,16.943,42.604,21.375,65.242c14.215,72.625,3.68,141.06-34.65,204.776c-2.693,4.476-5.857,8.668-8.803,12.992
	c-5.355,3.784-11.512,6.451-15.191,12.484c-1.5,2.458-4.623,3.761-7.814,3.729c-1.951-0.021-3.656-0.555-3.896-2.938
	c0.021-1.575,0.768-2.893,1.697-4.048c7.58-9.399,13.785-19.798,21.277-29.259c10.305-17.724,19.525-36.006,26.004-55.467
	c3.699-11.117,6.508-22.587,8.91-34.065c8.148-38.908,6.322-77.709-2.668-116.22c-8.061-34.525-22.799-66.185-42.469-95.603
	C522.854,138.104,519.838,133.656,516.836,129.2z"/>
<path fill="#152738" d="M513.889,476.816c3.152,3.494,8.299,1.852,11.295-3.007c3.348-5.43,8.336-8.877,14.807-9.854
	c-5.977,11.217-13.943,21.022-22.236,30.514c-50.619,57.934-114.313,91.445-190.471,101.535c-1.139,0.149-2.25,0.489-3.375,0.74
	c-4.127,1.14-8.455,0.771-12.621,1.713c-2.504,0.564-2.744-1.07-2.416-3.011c1.201-7.123,7.287-12.975,14.412-13.897
	c44.711-5.795,85.816-21.215,123.514-45.945c16.359-10.732,31.705-22.678,45.381-36.661c5.932-6.063,11.521-12.473,17.006-18.962
	C510.413,478.524,511.413,476.51,513.889,476.816z"/>
<path fill="#E6E7E7" d="M513.889,476.816c-15.443,18.616-32.168,35.883-51.811,50.189c-42.266,30.78-89.105,50.069-141.104,56.425
	c-3.367,0.412-5.496,1.577-6.891,4.66c-1.418,3.138-3.217,6.103-5.084,9.586c5.393-0.338,10.148-0.636,14.906-0.934
	c-4.662,2.436-10.363,0.783-14.904,3.77c-0.213,0.141-1.156-0.271-1.227-0.556c-2.229-9.053-5.238-0.742-6.557,0.178
	c-4.462,3.11-4.715,3.249-6.145-2.515c1.481,0.51,1.345,2.7,3.306,3.045c3.355-6.224,6.73-12.473,10.093-18.729
	c12.451-23.154,27.139-45.009,39.461-68.257c7.783-14.686,12.283-30.149,13.861-46.542c1.18-12.253,2.02-24.539,2.967-36.815
	c0.203-2.626,0.555-5.348-1.785-7.387c2.689,0.224,2.988,2.106,3.051,4.258c0.242,8.454-0.963,16.809-1.617,25.204
	c-0.953,12.19-2.43,24.297-4.529,36.338c-0.52,2.991,0.713,5.929,3.072,7.221c2.086,1.145,4.254-0.986,5.84-2.71
	c1.246-1.354,2.609-2.507,4.299-3.252c1.236,2.023-0.195,3.514-1.129,4.989c-8.99,14.223-17.361,28.822-26.32,43.063
	c-0.945,1.506-1.605,3.385-3.762,3.693c-7.6,10.928-13.826,22.671-21.053,34.841c12.104-2.188,23.398-4.406,34.559-7.313
	c42.369-11.028,80.572-30.456,114.287-58.247c25.135-20.719,45.34-45.817,61.51-74.126c0.818-1.433,1.77-2.79,2.658-4.184
	c0.416,2.554,2.42,5.21-0.953,7.413c-1.604,1.05-2.361,2.85-0.916,4.63c1.754,2.157,2.68-0.731,4.088-0.832
	c-2.971,7.469-8.33,13.409-12.785,19.923C520.264,468.25,517.026,472.499,513.889,476.816z"/>
<path fill="#112231" d="M355.137,599.99c5.986-0.61,11.881-1.744,17.729-3.144c0.74-0.5,1.627-0.559,2.043,0.189
	c0.447,0.81-0.193,1.421-1.014,1.722c-22.5,14.867-47.879,23.683-72.33,34.448c-2.374,1.047-4.583,0.778-6.767-0.116
	c-26.802-10.987-53.833-21.481-78.953-36.144c-0.687-0.4-1.303-0.922-2.648-1.886c5.198,0.255,9.271,1.646,13.414,2.646
	c19.341,4.668,39.009,6.93,58.84,7.862c4.303,0.203,7.654,0.998,9.52,5.534c1.349,3.282,3.41,3.769,5.385-0.029
	c1.043-2.004,2.586-3.842,4.602-5.115c5.195-0.772,10.451-0.935,15.672-1.464c5.223-0.529,10.398-0.823,15.459-2.587
	c5.35-1.861,11.131-0.533,16.656-1.461C353.547,600.314,354.403,600.484,355.137,599.99z"/>
<path fill="#17293A" d="M54.798,141.771c5.375,3.814,3.159,7.315,0.177,11.605c-4.181,6.016-5.757,13.354-7.672,20.296
	c-0.994,3.602-2.756,6.418-4.798,9.073c-6.683,8.688-9.89,18.67-11.233,29.273c-0.767,6.056-2.677,11.735-5.008,17.169
	c-4.522,10.544-5.311,22.35-11.263,32.364c-0.486,0.816-0.425,1.975-2.005,2.563c0.597-3.759,1.395-7.257,1.642-10.793
	c0.228-3.264,2.037-7.032-1.946-9.496c7.044-34.371,19.956-66.424,38.125-96.392C52.011,145.467,53.465,143.656,54.798,141.771z"/>
<path fill="#E6E7E7" d="M547.45,404.815c11.627-25.856,17.684-53.112,20.379-81.212c0.943,9.14-0.15,18.38-1.521,27.197
	c-1.264,8.145-4.574,16.178-5.146,24.562c-0.725,10.617-6.316,18.938-11.576,27.51C549.073,403.707,548.583,404.633,547.45,404.815z
	"/>
<path fill="#E6E7E7" d="M355.137,599.99c-16.514,3.78-33.289,5.369-50.18,5.972c3.398-2.368,7.426-1.044,11.115-1.632
	c7.084-1.13,14.238-0.869,21.061-4.213C342.77,597.354,349.108,600.896,355.137,599.99z"/>
<path fill="#E6E7E7" d="M538.627,422.844c2.732-5.398,5.463-10.8,8.195-16.197C546.268,413.147,543.686,418.622,538.627,422.844z"/>
<path fill="#5B646A" d="M373.895,598.759c0.873-1.291-0.041-1.621-1.027-1.911c2.309-1.358,4.775-2.014,8.033-1.832
	C378.672,597.233,376.549,598.47,373.895,598.759z"/>
<path fill="#17293A" d="M57.917,136.824c4.035,4.891-1.154,3.969-3.179,5.042C55.267,139.851,56.542,138.305,57.917,136.824z"/>
<path fill="#17293A" d="M67.789,122.741c-0.632,3.203-1.993,5.865-5.268,7.111C64.1,127.351,65.481,124.702,67.789,122.741z"/>
<path fill="#FBFBFC" d="M195.975,258.969c-0.295,0.329-0.589,0.66-0.884,0.991c-2.832,3.639-6.741,5.844-10.709,7.934
	c-1.929,1.016-4.097,1.925-6.114,0.462c-2.248-1.632-1.665-4.125-1.335-6.425c0.998-6.959,5.166-12.499,8.39-18.446
	c0.865-1.597,1.964-3.064,2.525-4.822c10.776-17.372,21.715-34.646,32.296-52.136c22.658-37.45,46.963-73.822,71.627-109.962
	c0.62-0.909,1.255-1.81,1.883-2.712c2.525-2.35,4.994-5.245,8.22-0.854c21.607,31.114,43.156,62.269,62.594,94.815
	c19.363,32.427,40.043,64.03,60.143,95.999c1.23,1.957,2.256,4.044,3.375,6.069c0.709,2.193,1.697,4.292,2.352,6.495
	c0.98,3.312,1.377,6.77-2.08,8.893c-3.248,1.998-5.92-0.013-8.531-1.938c-4.293-3.166-7.338-7.517-11.006-11.273
	c-12.98-16.65-26.182-33.138-38.895-49.988c-22.248-29.483-44.945-58.63-66.492-88.64c-5.02-6.991-5.175-6.946-10.17-0.208
	c-19.521,26.332-38.005,53.433-58.307,79.182c-10.595,13.438-21.089,26.979-32.621,39.655
	C200.167,254.379,197.729,256.365,195.975,258.969z"/>
<path fill="#EBEBEB" d="M82.062,166.15c10.262-14.929,20.347-30.003,32.819-43.245c43.937-46.649,97.942-73.401,161.559-79.695
	c50.416-4.987,97.938,5.814,142.348,30.217c23.947,13.826,45.459,30.74,63.785,51.463c30.82,34.855,53.709,74.19,64.453,119.766
	c11.842,50.228,9.113,99.861-8.355,148.553c-0.338,0.94-0.549,1.976-1.088,2.785c-1.6,2.4-1.918,6.863-6.311,5.412
	c-3.992-1.32-6.236-7.1-4.545-10.734c28.186-60.576,21.566-120.963-1.895-180.813c-19.063-48.628-50.447-88.458-93.939-117.097
	c-79.404-52.285-162.026-56.266-246.413-11.52c-9.686,5.136-19.293,10.48-27.726,17.626c-1.746,3.868-5.512,5.731-8.57,8.135
	c-29.899,23.501-51.903,53.3-68.909,86.908c-9.256,18.292-16.39,37.51-21.002,57.575c-0.438,1.903-0.539,4.008-2.344,5.333
	c-4.301,15.014-5.154,30.465-5.503,45.93c-0.484,21.398,1.632,42.533,7.578,63.185c2.566,1.777,0.569,4.918,2.091,7.008
	c2.56,5.772,5.107,11.551,7.685,17.314c1.764,3.946-0.688,9.576-4.802,10.729c-2.637,0.739-2.951-1.743-3.624-3.17
	c-5.133-10.89-8.716-22.35-11.24-34.065C33.356,295.228,44.155,230.829,79.7,170.5C80.537,169.08,81.276,167.601,82.062,166.15z"/>
<path fill="#0D1E2C" d="M55.929,256.818c1.29-12.03,5.171-23.431,9.367-34.61c12.902-34.379,31.362-65.47,56.316-92.585
	c10.612-11.531,22.287-21.807,35.142-30.756c1.656,5.342,4.924,4.579,8.716,2.407c1.854-1.063,4.134-2.369,5.8-0.073
	c1.568,2.161,0.496,4.205-1.147,6.224c-5.12,6.294-10.053,12.742-14.026,19.856c0.114,2.943-2.249,4.335-3.963,6.013
	c-15.517,15.192-29.444,31.684-40.758,50.255c-5.873,9.642-11.325,19.537-16.513,29.569c-1.249,2.75-3.184,5.162-4.006,8.126
	c-1.256,2.269-1.974,4.85-3.9,6.728c-2.611,2.88-2.728,6.936-4.947,10.101c-3.93,5.609-10.18,7.129-15.77,9.851
	c-3.904,1.9-6.53,4.758-7.225,9.131c-0.25,1.575,0.37,4.224-1.558,4.178C54.875,261.167,56.521,258.326,55.929,256.818z"/>
<path fill="#132937" d="M216.984,132.027c-1.597,3.599-3.521,7.096-4.687,10.829c-0.919,2.947-0.899,6.182,3.74,6.164
	c0.223,1.944-1.489,2.516-2.616,3.179c-10.584,6.23-20.149,13.747-28.842,22.399c-6.141,3.829-9.503,10.394-14.788,15.063
	c-3.519,3.154-6.209,7.012-9.076,10.72c-2.042,2.385-4.3,4.591-5.985,7.272c-2.884,3.53-5.059,7.56-7.837,11.164
	c-4.807,7.729-9.694,15.409-14.106,23.377c-1.347,1.576-1.873,4.206-4.795,3.78c0.315-1.104,0.683-2.197,0.936-3.315
	c0.479-2.12,2.521-4.992-0.122-6.166c-2.58-1.146-6.15-3.682-8.826,0.469c-1.276-1.443-0.491-2.851,0.212-4.132
	c13.46-24.522,27.991-48.375,48.428-67.815c11.033-10.496,22.449-20.739,35.938-28.22c2.693-1.299,5.225-2.904,7.906-4.223
	C213.874,131.879,215.28,130.547,216.984,132.027z"/>
<path fill="#E9E9EA" d="M408.717,272.057c4.496,3.009,7.584,7.646,12.256,10.495c2.133,1.302,4.125,3.411,6.676,1.781
	c2.381-1.521,2.313-3.99,1.49-6.66c-0.768-2.488-1.643-5.069-1.156-7.792c8.979,14.159,17.834,28.396,26.957,42.458
	c17.553,27.054,35.283,53.988,52.883,81.012c4.434,6.808,8.648,13.759,12.965,20.645c1.492,4.107,4.086,7.765,4.955,12.127
	c-1.332,1.742-1.41,1.72-3.85-1.141c-3.982-5.353-7.967-10.702-11.949-16.053c-3.697-1.76-5.227-5.477-7.301-8.55
	c-18.582-27.527-38.135-54.354-58.109-80.877c-1.814-2.411-3.102-5.084-4.525-7.699c-7.961-11.435-17.488-21.617-26.027-32.59
	C412.161,276.876,409.899,274.864,408.717,272.057z"/>
<path fill="#EFEEEF" d="M187.848,238.662c-0.295,5.021-4.091,8.479-5.824,12.893c-1.457,3.711-2.848,7.41-3.79,11.267
	c-0.381,1.561-0.895,3.497,0.64,4.641c1.564,1.167,3.209,0.015,4.627-0.781c3.894-2.185,7.73-4.474,11.59-6.721
	c-3.456,6.507-8.939,11.433-13.435,17.124c-19.407,24.576-38.26,49.569-56.864,74.752c-1.549,2.099-3.245,4.087-4.873,6.126
	c-3.158,2.264-4.763,1.775-5.254-1.652c-0.294-2.053,0.208-3.901,1.55-5.561c1.982-2.448,3.556-5.152,4.634-8.129
	c13.158-21.583,26.508-43.044,40.566-64.06C170.285,265.3,179.041,251.964,187.848,238.662z"/>
<path fill="#DDE2E5" d="M524.065,344.94c-5.064-11.682-10.27-23.304-15.166-35.053c-15.141-36.328-31.641-71.963-52.455-105.47
	c-19.955-32.12-46.207-57.466-79.836-75c-1.914-0.998-3.754-2.143-5.582-3.292c-0.338-0.212-0.455-0.773-0.846-1.486
	c3.246-0.938,5.703,0.652,8.129,1.769c26.701,12.276,48.686,30.428,66.965,53.352c19.613,24.598,32.621,52.947,46.68,80.729
	c10.627,21.005,18.924,42.982,27.254,64.938c2.244,5.912,3.859,12.067,6.654,17.783c0.738,0.854,0.873,1.866,0.025,2.564
	C525.047,346.467,524.456,345.715,524.065,344.94z"/>
<path fill="#D6D8D7" d="M204.954,137.868c-16.15,10.708-31.047,22.922-44.046,37.32c-16.728,18.528-29.77,39.538-40.929,61.775
	c-4.602,8.69-9.205,17.382-13.807,26.073c-1.946,3.32-3.039,7.124-5.463,10.196c-1.821-1.052-1.139-2.37-0.881-3.607
	c1.087-5.453,4.302-9.991,6.616-14.889c13.538-28.661,28.615-56.458,48.918-81.005c10.082-12.189,21.975-22.518,35.425-30.957
	c2.615-1.643,5.213-3.311,7.818-4.964c1.548-0.434,2.819-1.496,4.328-1.968C204.708,135.288,205.847,135.63,204.954,137.868z"/>
<path fill="#143947" d="M127.991,245.976c1.318-1.339,2.636-2.681,3.953-4.021c6.762-3.802,14.417-4.896,21.691-7.144
	c1.115-0.346,2.273-0.563,3.357,0.171c-4.808,8.507-11.288,15.803-17.136,23.552c-2.085,2.763-4.528,5.257-6.813,7.868
	c-2.243,2.561-4.805,4.484-8.378,4.854c-2.945,0.306-4.86,2.688-7.302,4.021c-1.159,0.632-1.896,3.034-3.597,1.579
	c-1.657-1.417-0.181-3.114,0.555-4.495c3.654-6.858,7.407-13.663,11.105-20.497C126.447,249.977,127.708,248.188,127.991,245.976z"
	/>
<path fill="#E2E5E5" d="M120.849,342.62c0.185,3.564-1.965,6.143-3.805,8.817c-1.46,2.126-1.532,4.471-0.581,6.58
	c0.759,1.683,2.282,0.317,3.456-0.057c-1.809,4.526-5.258,7.961-7.964,11.887c-8.57,12.432-17.941,24.306-25.962,37.123
	c-5.086,5.678-8.769,12.491-14.335,17.769c-0.91,0.863-1.642,3.106-3.369,1.663c-1.273-1.063,0.13-2.476,0.736-3.539
	c10.107-17.748,20.951-35.04,32.391-51.956C107.824,361.431,114.367,352.046,120.849,342.62z"/>
<path fill="#143E4C" d="M461.893,240.042c6.201,8.582,10.48,18.238,15.277,27.596c1.471,2.867,0.551,4.017-3.092,3.661
	c-6.119-0.596-10.715-3.734-14.248-8.115c-7.633-9.471-15.498-18.797-21.902-29.202c6.291,0.604,11.703,4.121,17.803,5.388
	C457.778,239.794,459.678,241.23,461.893,240.042z"/>
<path fill="#D4D6D7" d="M411.977,107.979c37.908,23.087,64.697,56.101,84.758,95.086c2.008,3.905,2.545,8.468,5.086,12.178
	c0.813,0.848,0.912,1.86,0.039,2.566c-0.826,0.666-1.469-0.183-2.031-0.77c-5.842-11.897-12.17-23.52-19.484-34.59
	c-14.396-21.786-30.705-41.931-50.93-58.615c-6.271-5.174-13.098-9.673-19.67-14.48
	C409.604,107.458,410.551,107.329,411.977,107.979z"/>
<path fill="#1F525E" d="M156.993,234.982c-7.046,3.765-15.585,3.132-22.407,7.603c-0.913,0.6-1.921,0.265-2.642-0.629
	c1.296-5.937,6.005-10.012,8.408-15.385c1.379-3.083,3.734-5.729,5.649-8.572c7.246,2.089,13.979-0.682,20.837-2.218
	c1.396-0.313,2.608-1.566,4.206-0.764C167.08,222.178,161.968,228.532,156.993,234.982z"/>
<path fill="#CAC6C0" d="M93.944,212.896c5.601-11.813,11.813-23.299,18.823-34.331c12.107-19.056,27.149-35.657,43.33-51.285
	c1.64-1.096,3.279-2.19,4.918-3.286c1.856-0.856,2.426-0.226,1.662,1.567c-0.503,1.18-1.993,1.569-2.548,2.773
	C149,139.53,137.97,150.794,128.317,163.355c-8.835,11.497-16.832,23.527-23.844,36.188c-2.72,4.91-6.73,9.028-8.595,14.426
	c-0.362,0.759-0.959,1.387-1.768,0.919C93.358,214.453,93.403,213.615,93.944,212.896z"/>
<path fill="#C2C4C5" d="M99.827,269.625c0.154,0.792,0.308,1.585,0.501,2.576c2.764-2.708,2.839-6.881,5.844-9.165
	c-4.035,11.075-9.671,21.436-14.378,32.213c-9.3,21.291-18.279,42.714-26.777,64.334c-1.731,4.407-5.25,8.188-4.921,13.355
	c-1.643-2.054-1.892-4.523-2.091-7.008c2.889-0.131,2.542-2.742,3.156-4.4c11.386-30.749,24.653-60.711,37.789-90.729
	C99.14,270.366,99.53,270.015,99.827,269.625z"/>
<path fill="#93D7DA" d="M396.653,176.138c-5.811-8.46-11.621-16.92-17.432-25.381c14.635,5.634,26.256,15.203,36.668,26.427
	c0.998,2.084-0.555,2.473-1.832,2.151C408.321,177.893,402.372,177.646,396.653,176.138z"/>
<path fill="#1E515F" d="M461.893,240.042c-0.121,1.877-0.967,2.869-2.891,2.035c-6.912-2.999-14.729-3.637-21.074-8.096
	c-3.557-4.51-7.449-8.777-10.053-13.973c4.426-0.502,8.383,1.457,12.533,2.388c4.15,0.932,8.109,2.762,12.48,2.661
	C456.995,229.391,458.469,235.302,461.893,240.042z"/>
<path fill="#8BCDD3" d="M183.795,173.629c9.306-10.091,20.448-17.776,32.242-24.607c1.116,0.872,0.517,1.751-0.067,2.531
	c-5.504,7.345-9.933,15.449-15.884,22.479c-2.11,3.107-4.78,4.845-8.751,3.908c-1.444-0.341-2.92,0.196-4.369,0.512
	c-2.028,0.443-4.564,1.646-5.815-0.657C180.075,175.812,183.212,175.264,183.795,173.629z"/>
<path fill="#306F7A" d="M171.045,215.017c-4.308,4.057-10.106,3.521-15.283,4.837c-1.872,0.476-3.909,0.35-5.854,0.894
	c-2.214,0.618-4.036,0.196-3.906-2.749c2.665-3.689,4.677-7.846,7.93-11.116c2.253,1.033,4.447,0.729,6.651-0.219
	c3.97-1.708,8.207-2.271,12.449-2.768c1.781-0.209,3.629-0.553,5.013,1.109C176.346,208.787,173.774,211.956,171.045,215.017z"/>
<path fill="#4D9BA3" d="M411.905,197.995c-3.348-4.093-6.514-8.31-8.992-13c8.455,1.042,16.701,3.092,24.938,5.173
	c4.336,3.523,7.156,8.22,9.994,12.902c-0.223,2.585-2.311,2.228-3.676,1.849c-6.5-1.806-13.02-3.484-19.639-4.796
	C413.377,199.896,412.553,198.987,411.905,197.995z"/>
<path fill="#2B6A76" d="M452.891,225.057c-0.16,0.839-0.473,1.911-1.428,1.664c-7.916-2.045-16.041-3.368-23.588-6.715
	c-2.998-3.435-6.049-6.832-8.068-10.985c3.797-1.56,7.389-0.186,10.982,0.822c5.02,1.406,9.766,3.761,15.016,4.384
	C449.208,217.157,450.592,221.406,452.891,225.057z"/>
<path fill="#112537" d="M202.211,511.821c-10.248-0.799-18.821-4.972-26.262-12.108c-3.418-3.279-9.188-3.47-11.857-8.134
	c-0.731-1.273-2.082-2.3-2.483-3.639c-0.86-2.867-1.304-5.742-4.719-6.953c-1.121-0.396-0.867-2.018-0.865-3.176
	c2.129-1.268,3.423,0.4,4.77,1.478c12.427,9.938,24.992,19.686,38.307,28.427C200.584,508.688,202.349,509.567,202.211,511.821z"/>
<path fill="#377E89" d="M445.805,214.227c-0.752,1.399-1.762,1.628-3.289,1.105c-7.445-2.536-14.838-5.292-22.709-6.313
	c-2.922-3.469-5.803-6.968-7.902-11.026c7.793,1.788,15.791,2.745,23.27,5.823c0.916,0.378,1.957,0.131,2.674-0.748
	C441.438,206.121,443.42,210.316,445.805,214.227z"/>
<path fill="#6CBDC2" d="M427.852,190.169c-1.188,2.288-2.908,0.896-4.336,0.498c-5.102-1.419-10.152-3.309-15.518-2.993
	c-2.518,0.148-3.203-2.188-5.086-2.679c-2.398-2.73-4.568-5.625-6.26-8.855c5.416-1.587,10.508,0.02,15.662,1.43
	c1.059,0.289,2.67,2.093,3.574-0.384C421.163,180.328,423.743,185.953,427.852,190.169z"/>
<path fill="#63AEB5" d="M183.795,173.629c-0.656,1.265-1.312,2.529-1.967,3.794c5.733-3.174,12.936,1.727,18.257-3.393
	c-2.787,5.054-6.135,9.709-9.953,14.032c-1.203,1.004-2.608,1.271-4.13,1.167c-4.129-0.281-8.11,0.535-12.113,1.44
	c-1.818,0.412-4.31,1.598-4.968-1.756C173.546,183.495,178.05,177.958,183.795,173.629z"/>
<path fill="#95A6B2" d="M202.211,511.821c-15.986-10.535-30.845-22.6-46.187-34.01c-1.379-1.59-2.759-3.181-4.138-4.771
	c-0.073-1.748,0.763-1.78,1.998-1.057c14.505,10.641,29.009,21.279,43.519,31.913c1.983,1.454,4.091,2.755,5.969,4.332
	C205.669,510.161,205.464,511.551,202.211,511.821z"/>
<path fill="#3D818B" d="M178.045,205.007c-6.701,0.409-13.313,1.224-19.481,4.149c-2.455,1.165-4.543,1.452-4.631-2.271
	c1.496-2.735,3.414-5.128,5.809-7.13c2.786-0.531,5.421-1.525,7.954-2.757c5.826-2.833,12.078-2.927,18.343-3.004
	C184.213,198.275,180.871,201.454,178.045,205.007z"/>
<path fill="#4E98A0" d="M186.038,193.994c-1.705,0.937-3.213,2.293-5.417,1.995c-5.497-0.742-10.314,1.367-15.08,3.698
	c-1.891,0.924-3.84,2.278-5.798,0.067c2.586-4.015,5.295-7.925,9.179-10.841c1.012,1.24,2.339,1.243,3.624,0.703
	c5.707-2.397,11.627-2.141,17.586-1.555C189.342,190.437,187.819,192.305,186.038,193.994z"/>
<path fill="#B4B2B1" d="M160.129,128.335c-0.789-1.668,3.71-2.257,0.886-4.341c12.453-10.995,26.544-19.385,41.63-26.195
	c1.036-0.236,2.194-0.735,2.272,1.066C189.284,107.619,174.164,117.151,160.129,128.335z"/>
<path fill="#C0C5C9" d="M411.977,107.979c-0.965,0.101-1.777,0.445-2.232,1.374c-8.414-4.583-16.828-9.166-25.242-13.748
	c0.203-0.405,0.408-0.812,0.611-1.216C394.897,97.148,403.944,101.481,411.977,107.979z"/>
<path fill="#BCC3C9" d="M204.954,137.868c-2.081-3.961-4.247,1.474-6.35-0.058c7.997-5.202,16.367-9.569,26.033-11.264
	c-2.551,1.827-5.102,3.654-7.653,5.48C212.974,133.975,208.964,135.92,204.954,137.868z"/>
<path fill="#B7BEC4" d="M524.065,344.94c2.098,0.979,1.67-0.665,1.797-1.731c4.195,7.736,6.967,16.005,9.199,24.519
	C530.133,360.704,527,352.869,524.065,344.94z"/>
<path fill="#9BA2A9" d="M499.829,217.04c1.799,0.661,2.123-0.314,1.99-1.797c2.971,4.228,4.227,9.035,4.813,14.108
	C503.586,225.648,501.704,221.347,499.829,217.04z"/>
<path fill="#ABAAAA" d="M93.944,212.896c0.108,1.326,0.705,1.769,1.934,1.072c-0.383,3.125-2.511,5.376-3.98,7.958
	c-0.35,0.765-0.943,1.409-1.755,0.979c-0.767-0.407-0.764-1.24-0.181-1.958C89.968,217.61,92.53,215.538,93.944,212.896z"/>
<path fill="#D7DCDF" d="M301.872,72.998c-2.979-2.015-5.595-0.54-8.219,0.854c1.03-2.616,2.849-4.64,4.72-6.836
	C300.167,68.927,301.805,70.498,301.872,72.998z"/>
<path fill="#656F78" d="M89.962,220.948c0.127,1.35,0.681,1.858,1.937,0.979c-0.37,2.673-2.282,4.563-3.572,6.743
	c-0.745,1.259-1.137,0.028-1.37-0.699C87.029,225.232,88.382,223.042,89.962,220.948z"/>
<path fill="#949CA2" d="M204.918,98.866c-0.757-0.354-1.514-0.711-2.272-1.066c2.563-1.735,5.361-2.772,9.324-3.46
	C209.907,97.585,207.632,98.572,204.918,98.866z"/>
<path fill="#728392" d="M153.884,471.985c-0.666,0.354-1.332,0.704-1.998,1.058c-1.471-1.168-3.142-2.174-3.604-4.335
	c1.902-0.402,3.022,1.244,4.593,1.394c0,0.002-0.01-0.024-0.011-0.022C153.204,470.716,153.544,471.35,153.884,471.985z"/>
<path fill="#0E2232" d="M440.006,311.804c6.469,7.173,11.947,15.111,17.695,22.844c17.576,23.647,34.475,47.776,51.104,72.099
	c0.459,0.673,0.762,1.453,1.139,2.185c0.426,6.276,3.395,11.7,5.854,17.289c0.568,1.293,2.291,2.414,1.047,3.932
	c-1.053,1.283-2.785,0.918-4.229,0.519c-3.545-0.986-6.898,0.132-10.141,1.119c-4.783,1.46-8.045,4.186-7.705,10.06
	c0.182,3.105-1.592,6.01-3.494,8.632c-0.936,1.286-2.033,2.925-0.5,4.512c1.613,1.668,2.986,0.521,4.285-0.646
	c0.365-0.33,0.912-0.923,1.18-0.83c4.838,1.679,9.566,0.751,14.479,0.239c2.109-0.221,1.508,3.547,0.367,5.333
	c-8.006,12.542-17.621,23.616-30,32.074c-2.049,1.399-4.486,3.082-6.84,2.08c-2.574-1.096-3.371-3.699-2.982-6.735
	c0.281-2.189-0.896-3.626-3.58-3.616c-4.207,0.017-8.236,0.859-12.195,2.079c-2.264,0.697-4.502,1.25-6.848,0.889
	c-5.896-0.908-7.373-3.351-5.568-8.938c0.4-1.251,0.605-2.564,0.902-3.851c-1.818-2.35-2.498,0.486-3.727,0.827
	c-13.451,9.761-26.246,20.39-39.826,29.973c-2.445,1.727-4.826,3.529-7.424,5.027c-1.148,0.663-2.508,1.367-1.105,3.018
	c0.83,0.014,1.664-0.003,2.492,0.045c2.061,0.115,4.355,0.525,5.018,2.555c0.672,2.065-1.428,3.394-2.602,4.986
	c-4.291,5.825-11.746,6.37-16.998,10.507c-7.969,6.275-17.791,9.519-25.684,16c-4.275,3.512-8.217,1.832-12.236-4.263
	c8.99-16.188,19.166-31.657,28.852-47.427c0.855-1.396,1.576-2.879,2.359-4.319c12.713-18.025,24.924-36.392,36.961-54.871
	c3.42-3.447,3.32-6.886-0.025-10.313c-19.014-25.211-38.15-50.329-57.002-75.658c-16.475-22.137-32.623-44.515-48.93-66.774
	c-1.344-1.835-2.787-3.593-4.186-5.386c-3.748-2.66-4.151,1.722-6.082,2.89c-22.794,30.711-45.446,61.527-68.438,92.09
	c-12.782,16.987-25.451,34.085-39.315,50.234c-0.4-4.159,2.291-6.909,4.795-9.468c5.61-5.729,7.396-13.59,11.673-20.037
	c0.629-0.946,0.836-2.169,1.433-3.146c0.74-1.21,2.705-2.28,1.461-3.774c-1.445-1.735-3.343-0.206-4.335,0.817
	c-4.083,4.21-8.1,1.997-11.785-0.151c-6.252-3.645-8.67-3.578-13.109,1.836c-6.621,8.076-13.099,16.271-19.677,24.383
	c-0.891,1.101-1.594,2.572-4.415,2.646c2.145-6.542,3.732-12.907,6.277-18.865c7.574-17.729,15.526-35.3,23.325-52.935
	c0.485-1.098,1.119-2.045,2.263-2.547c1.817,2.128,0.419,4.086-0.419,5.986c-3.601,8.169-7.944,16.028-10.149,24.771
	c-0.811,3.213-2.507,7.779-0.016,9.299c2.592,1.581,4.75-2.963,6.834-5.021c4.364-4.306,7.84-9.386,11.365-14.393
	c1.315-2.157,2.832-4.181,4.186-6.311c1.833-2.515,3.87-4.89,5.297-7.685c1.091-2.19,3.022-3.855,3.86-6.208
	c2.356-3.879,6.15-6.715,7.957-10.993c2.937-4.979,7.198-8.969,10.341-13.8c0.893-1.372,2.11-2.536,2.546-4.185
	c3.906-8.039,10.566-14.07,15.545-21.358c16.909-24.751,33.762-49.552,51.825-73.495c1.322-1.484,2.552-3.129,4.875-2.963
	c6.761,4.897,10.757,12.156,15.519,18.683c14.305,19.602,28.094,39.576,42.328,59.234c6.516,10.309,14.27,19.751,20.951,29.943
	c3.746,4.923,6.982,10.213,10.863,15.04c1.723,2.731,3.975,5.113,5.396,8.05c2.82,5.05,6.768,9.319,9.859,14.181
	c6.709,9.664,12.195,20.227,20.85,28.456c1.121,1.065,2.209,3.271,3.918,2.226c1.396-0.857,0.756-3.081,0.498-4.702
	c-0.891-5.611-2.779-10.925-4.979-16.143c-4.572-10.85-8.938-21.789-14.232-32.32c-4.076-8.659-7.684-17.535-12.125-26.024
	c-2-4.322-3.979-8.648-6.229-12.854c-1.043-1.946-2.582-3.986-0.842-6.367c4.773,3.966,7.555,9.53,11.164,14.387
	c3.842,5.171,7.855,8.687,14.609,9.883c4.475,0.794,9.168,3.042,12.027,7.771c4.867,8.044,13.205,11.771,21.277,15.658
	c0.896,0.431,2.113,0.334,2.658-0.699c0.648-1.231,0.637-2.68-0.164-3.821c-2.869-4.095-3.824-9.212-8.061-12.719
	C440.448,320.093,440.428,315.604,440.006,311.804z"/>
<path fill="#64BFC7" d="M300.057,152.075c0.615,0.502,1.404,0.891,1.822,1.523c10.271,15.625,22.037,30.258,31.066,46.71
	c0.313,0.568,0.693,1.101,1.043,1.648c0.305,1.081-0.422,1.775-1.219,1.711c-6.494-0.525-10.898,3.647-15.49,7.063
	c-3.561,2.647-7.322,4.542-11.559,5.664c-2.729-0.506-3.979-2.926-5.886-4.515c-1.771-2.457-1.721-5.312-1.729-8.125
	c-0.041-14.753-0.057-29.506,0.015-44.258C298.134,156.901,297.756,154.114,300.057,152.075z"/>
<path fill="#5EB4BC" d="M250.949,217.956c5.596-8.968,11.399-17.796,17.862-26.173c1.054-0.143,1.672-0.989,2.494-1.511
	c3.775-2.401,6.926-1.999,9.44,1.607c3.03,4.347,6.229,8.47,10.306,11.914c2.078,1.756,2.805,4.397,3.468,6.974
	c-0.008,2.394-1.549,4.069-2.752,5.907c-3.409,4.242-6.379,8.796-9.474,13.265c-1.064,1.538-1.904,3.645-4.474,3.159
	c-4.97-5.088-10.598-9.436-16.108-13.89c-2.4-1.938-5.179-1.372-7.854,0.464C251.769,221.103,251.572,220.815,250.949,217.956z"/>
<path fill="#52ACB5" d="M305.934,215.982c2.848-3.436,7.834-3.269,10.869-6.747c2.086-2.391,5.648-3.438,8.006-5.663
	c2.891-2.725,6.363,0.116,9.182-1.615c5.805,5.662,8.498,13.375,13.098,19.833c0.566,0.793,1.188,1.549,1.779,2.323
	c0.238,0.786-0.191,1.508-0.826,1.445c-4.832-0.484-6.996,2.836-9.129,6.228c-3.469,5.515-8.439,8.69-14.875,9.61
	c-1.711,0.054-2.766-1.048-3.648-2.256c-4.5-6.157-9.215-12.165-13.367-18.571C306.139,219.209,305.075,217.797,305.934,215.982z"/>
<path fill="#469DA6" d="M323.852,241.112c0.211-0.813,0.479-1.896,1.355-1.876c6.668,0.156,10.322-4.342,13.021-9.252
	c2.506-4.555,5.781-6.286,10.641-5.871c5.512,6.754,9.867,14.257,14.127,21.822c0.045,0.159,0.164,0.437,0.125,0.46
	c-6.482,4.008-8.938,11.547-14.428,16.438c-2.285,2.036-4.566,3.829-7.824,3.684c-2.152-0.514-3.059-2.368-4.203-3.946
	c-3.771-5.196-7.381-10.505-11.076-15.754C324.428,245.167,322.542,243.58,323.852,241.112z"/>
<path fill="#4FA3AA" d="M250.949,217.956c0.3,0.954,0.755,2.347,1.848,0.993c3.856-4.774,7.86-2.593,11.384-0.039
	c4.625,3.354,7.566,8.834,13.694,10.423c1.739,0.451-0.154,2.313,0.06,3.524c-0.368,4.648-10.615,19.237-14.996,21.354
	c-3.609-3.666-7.864-6.596-11.58-10.158c-2.822-2.707-6.111-4.5-10.367-3.582c-1.628,0.352-3.978,0.735-3.011-2.47
	C242.303,231.32,246.626,224.638,250.949,217.956z"/>
<path fill="#70C1C9" d="M293.795,210.994c-3.061-7.858-11.294-11.708-14.875-19.276c-1.194-2.524-4.112-2.333-6.494-0.647
	c-1.09,0.771-1.983,2.646-3.614,0.713c3.677-7.475,9.506-13.486,13.922-20.47c4.164-6.586,8.721-12.922,13.106-19.369
	c2.102,1.701,1.953,4.143,1.965,6.438c0.075,13.828,0.233,27.661-0.086,41.483C297.626,203.826,298.221,208.399,293.795,210.994z"/>
<path fill="#256372" d="M389.809,292.012c1.518,6.828,6.584,12.125,8.174,18.924c0.672,5.632-3.404,11.325-10,13.859
	c-1.834,0.704-3.76,1.147-5.676,1.595c-2.449,0.061-3.029-2.309-4.533-3.485c-4.291-6.204-8.076-12.741-12.453-18.892
	c-0.859-1.208-1.469-2.583-1.078-4.163c0.363-1.04,1.154-1.668,2.188-1.727c9.262-0.519,13.783-6.379,16.391-14.431
	c0.209-0.642,0.551-1.184,1.086-1.599C385.874,285.4,387.842,288.706,389.809,292.012z"/>
<path fill="#47989F" d="M237.981,238.001c0.213,1.539,1.089,2.028,2.405,1.271c3.28-1.894,6.321-0.626,8.656,1.36
	c4.853,4.128,10.913,7.045,13.906,13.146c0.298,1.349,0.187,2.668-0.604,3.807c-3.816,5.504-6.82,11.64-12.271,15.89
	c-4.268-0.256-7.405-2.463-9.881-5.776c-2.774-3.711-5.79-7.183-9.64-9.836c-1.827-1.258-2.779-2.786-1.656-5.009
	C231.343,247.546,234.833,242.879,237.981,238.001z"/>
<path fill="#388590" d="M340.928,265.983c6.098-2.463,10.459-6.813,13.291-12.644c1.865-3.84,4.91-6.052,8.777-7.404
	c4.268,5.964,7.871,12.316,11.018,18.934c0.977,1.443,0.652,2.926-0.244,4.146c-4.436,6.028-8.068,12.993-16.465,14.567
	c-1.15,0.217-2.025,1.056-3.061,1.555c-0.328,0.104-0.771,0.238-0.957,0.05C347.821,279.655,343.047,273.671,340.928,265.983z"/>
<path fill="#378089" d="M228.897,252.854c0.054,0.496-0.072,1.288,0.188,1.445c8.035,4.89,11.282,15.22,20.846,18.348
	c-0.554,3.704-2.6,6.7-4.681,9.647c-3.131,4.439-6.007,9.052-9.159,13.473c-1.063,1.488-1.754,3.742-4.372,3.25
	c-2.273-4.966-4.568-9.907-7.54-14.531c-1.703-2.648-2.933-5.582-5.375-7.732c-1.188-1.045-1.85-2.374-0.975-3.998
	C220.891,265.772,224.532,259.111,228.897,252.854z"/>
<path fill="#2D6E79" d="M217.831,272.757c4.593,4.795,7.275,10.857,10.875,16.312c1.981,3.002,3.276,6.138,3.237,9.765
	c1.212,2.23-0.478,3.731-1.451,5.323c-2.141,3.504-4.616,6.795-6.718,10.33c-1.776,2.382-3.2,5.017-5.076,7.316
	c-1.025,1.257-1.964,3.254-4.225,1.731c-0.323-8.414-2.519-16.349-6.061-23.954c-1.16-2.489-1.309-5.104-0.532-7.756
	C210.69,285.204,213.502,278.584,217.831,272.757z"/>
<path fill="#2E7380" d="M353.995,284.796c0.016-1.416,0.213-2.615,2.039-2.803c10.396-1.063,13.574-9.745,17.98-17.124
	c4.188,5.23,6.582,11.489,9.893,17.226c0.055,6.152-6.98,15.675-12.697,17.67c-2.195,0.765-4.455-2.165-6.396,0.413
	c-2.834,0.007-3.496-2.517-4.828-4.217c-1.092-1.395-1.977-2.954-3.33-4.14C355.192,289.698,352.176,288.157,353.995,284.796z"/>
<path fill="#275F6B" d="M207.88,291.824c1.109,6.89,5.002,12.847,6.491,19.647c0.926,4.228,2.268,8.296,0.657,12.6
	c0.904,2.715-1.448,4.234-2.303,6.307c-2.332,3.471-4.777,6.859-7.259,10.23c-0.997,1.495-1.785,3.365-4.189,2.313
	c-3.542-8.287-7.004-16.594-5.293-25.953C199.772,308.503,203.048,299.796,207.88,291.824z"/>
<path fill="#133442" d="M192.97,361.951c-4.922,7.896-10.946,14.874-17.728,21.216c-0.695,0.65-1.372,1.718-2.484,1.2
	c-1.334-0.621-1.566-2.034-1.731-3.355c-0.701-5.609,0.925-10.857,2.958-15.906c2.646-6.573,5.72-12.976,8.648-19.434
	c0.687-1.515,1.491-2.969,1.351-4.708c0.333-0.003,0.666-0.003,0.999,0C188.215,347.742,191.037,354.678,192.97,361.951z"/>
<path fill="#1C4855" d="M192.97,361.951c-0.458-0.176-1.251-0.264-1.325-0.542c-1.84-6.939-6.566-12.944-6.663-20.445
	c4.004-7.844,6.382-16.433,11.001-23.994c0.972,8.892,3.792,17.357,5.991,25.967c0.317,1.935-0.662,3.552-1.272,5.262
	c-1.228,2.576-3.955,4.41-3.789,7.679C195.599,357.901,194.284,359.926,192.97,361.951z"/>
<path fill="#DAF0F4" d="M293.795,210.994c1.787-2.621,1.876-5.727,1.906-8.637c0.173-16.803,0.117-33.61,0.139-50.415
	c-0.019-1.301,0.563-2.315,1.849-2.473c1.83-0.227,0.951,2.282,2.368,2.604c0.023,18.202,0.043,36.404,0.068,54.604
	c0.004,1.965-0.32,4.056,1.82,5.292c0.838,3.982-1.164,4.146-4.104,3.053c-1.245,1.003-2.49,2.006-3.735,3.009
	c-2.155,0.869-3.265,0.194-3.221-2.182C291.855,214.231,292.825,212.613,293.795,210.994z"/>
<path fill="#EFEEEF" d="M195.975,258.969c0.892-3.385,3.416-5.291,6.256-6.91C200.584,254.757,198.716,257.258,195.975,258.969z"/>
<path fill="#F3A162" d="M293.75,496.103c-16.561-23.643-32.48-47.708-47.771-72.191c-0.512-0.488-0.33-1.331-0.754-1.774
	c-3.545-3.703-2.354-7.424-0.13-11.171c6.505-10.24,14.625-19.275,21.746-29.063c8.788-12.075,17.974-23.861,26.967-35.787
	c4.596-6.095,4.4-5.979,9.081,0.331c15.719,21.19,31.582,42.273,47.367,63.415c1.865,2.496,4.309,4.659,4.879,7.958
	c-16.787,23.794-33.566,47.593-50.377,71.369c-1.438,2.033-3.092,3.916-4.645,5.869C298.259,497.035,296.574,500.038,293.75,496.103
	z"/>
<path fill="#C38E69" d="M245.094,410.966c-1.232,4.421-1.126,8.747,0.885,12.945c-2.738-1.467-2.463-6.383-6.839-5.976
	C241.125,415.611,243.11,413.288,245.094,410.966z"/>
<path fill="#CBD2D6" d="M410.03,424.811c5.186,4.915,5.186,5.327,0.025,10.313C411.901,431.681,412.043,428.242,410.03,424.811z"/>
<path fill="#AFB9C1" d="M293.831,279.88c0.238-1.747,1.584-2.831,2.584-4.067c2.038-2.519,3.136-1.607,3.497,1.179
	C297.112,276.327,295.981,279.177,293.831,279.88z"/>
<path fill="#98785E" d="M293.75,496.103c2.609,2.623,4.339-0.104,6.364-1.046c-0.618,2.13-1.78,4.137-4.013,4.322
	C294.601,499.504,294.072,497.563,293.75,496.103z"/>
<path fill="#8698A5" d="M391.893,511.912c-0.98-0.103-1.961-0.204-2.939-0.307c-0.23-0.342-0.457-0.685-0.686-1.027
	c17.924-11.62,33.963-25.713,51.537-37.789c1.674-0.059,1.863,0.684,1.057,1.961C425.59,488.523,409.618,501.372,391.893,511.912z"
	/>
<path fill="#637986" d="M440.862,474.75c-0.354-0.652-0.705-1.307-1.059-1.96c1.307-1.585,2.9-2.614,5.059-2.709
	c0.996,1.432-0.807,1.956-0.889,2.985C442.938,473.629,441.899,474.188,440.862,474.75z"/>
<path fill="#839098" d="M521.893,424.982c1.402-0.023,1.91,2.969,3.85,1.141c1.027,0.301,1.229,1.086,0.816,1.885
	c-0.467,0.908-1.35,0.806-2.088,0.308C523.256,427.496,521.967,426.7,521.893,424.982z"/>
<path fill="#0E2232" d="M126.583,103.596c0.002,1.108-0.846,1.442-1.495,1.906c-2.519,1.803-5.52,3.027-6.729,6.308
	c-0.35,0.948-1.54,1.241-2.592,0.869c-1.025-0.362-1.549-1.19-1.664-2.262c-0.346-3.234,6.384-10.551,9.498-10.243
	C125.639,100.376,126.07,102.104,126.583,103.596z"/>
<path fill="#0E2232" d="M134.152,97.79c-0.875-0.129-1.644-0.641-1.665-1.46c-0.036-1.344,1.142-1.286,2.085-1.303
	c0.795-0.014,1.772,0.021,1.591,1.156C136.005,97.174,135.363,97.93,134.152,97.79z"/>
<path fill="#143948" d="M409.969,336.935c2.43,1.202,2.49,3.858,3.326,5.892c5.529,13.452,12.697,26.27,15.949,40.608
	c0.76,3.352,2.379,7.782-0.771,9.627c-2.711,1.589-4.645-2.843-6.607-4.815c-8.229-8.271-14.15-18.229-19.939-28.256
	c-1.08-4.025-0.168-7.503,2.721-10.541c2.24-2.354,3.508-5.193,3.748-8.481C408.504,339.49,408.616,337.952,409.969,336.935z"/>
<path fill="#1B4958" d="M409.969,336.935c0.543,5.854-0.637,11.122-5.477,14.955c-2.754,2.183-0.322,5.85-2.564,8.101
	c-3.75-4.382-7.361-8.861-9.955-14.063c0.127-4.082-3.004-6.39-5.063-9.28c-2.209-3.319-5.738-6.029-4.949-10.73
	c2.672-3.26,7.502-2.078,10.455-5.561c2.488-2.934,4.852-5.585,5.564-9.42C402.979,319.141,406.53,328.012,409.969,336.935z"/>
<path fill="#D1E1E5" d="M290.885,215.85c0.625,1.39,1.706,2.105,3.221,2.182c-2.146,4.696-5.659,8.478-8.693,12.539
	c-15.831,21.188-30.173,43.414-45.55,64.916c-4.215,5.893-8.616,11.653-12.931,17.474c-0.589,0.985-1.213,2.016-2.211,2.564
	c-2.592,1.427-2.385-0.157-1.928-1.911c3.05-4.927,6.101-9.854,9.151-14.782c5.323-7.399,10.823-14.678,15.219-22.704
	c0.701-1.28,1.834-2.325,2.768-3.479c4.825-5.954,9.208-12.212,13.017-18.868c5.577-6.559,10.192-13.804,14.988-20.922
	C282.252,227.188,286.569,221.52,290.885,215.85z"/>
<path fill="#D1E1E5" d="M297.841,215.023c2.089-0.049,3.958-0.394,4.105-3.053c2.041,0.63,2.098,3.231,3.986,4.013
	c5.334,8.832,11.545,17.039,17.92,25.128c5.088,8.706,11.291,16.646,17.076,24.873c4.355,6.271,8.711,12.543,13.066,18.813
	c0.67,2.526,2.178,4.542,3.912,6.42c0.818,0.949,0.449,1.761-0.34,2.467c-1.221,1.09-2.014-0.119-2.938-0.596
	c-16.947-23.614-33.893-47.231-50.842-70.847C301.969,219.704,299.189,217.953,297.841,215.023z"/>
<path fill="#BFD4DB" d="M354.631,293.089c1.736,0.501,3.156,0.45,3.277-1.874c2.303,2.987,4.604,5.975,6.908,8.962
	c4.678,7.333,9.357,14.664,14.039,21.997c0.771,0.957,1.143,2.142-0.154,2.693c-1.479,0.632-1.93-1.229-2.959-1.801
	C368.659,313.107,361.114,303.473,354.631,293.089z"/>
<path fill="#C0CFD2" d="M222.793,313.614c2.09,4.283,2.588-1.52,4.139-0.653c-3.168,6.834-8.638,12.011-12.982,17.995
	c-0.425,0.727-1.041,1.38-1.87,0.915c-0.804-0.45-0.681-1.31-0.22-2.059c0.374-2.29,2.254-3.749,3.167-5.741
	C217.616,320.585,220.205,317.1,222.793,313.614z"/>
<path fill="#96B3BD" d="M375.743,323.067c0.955-0.589,3.27,3.561,3.113-0.894c1.035,1.248,2.068,2.496,3.104,3.743
	c1.59,3.61,3.578,6.993,5.867,10.2c0.926,1.354,0.578,2.031-1.07,2.021C382.471,333.563,379.344,328.142,375.743,323.067z"/>
<path fill="#98B0B8" d="M211.861,329.813c0.121,1.434,0.855,1.746,2.089,1.144c-1.475,4.52-5.418,7.263-7.937,11.029
	c-1.756,0.029-1.671-0.923-1.129-2.119C206.645,336.122,209.329,333.021,211.861,329.813z"/>
<path fill="#638895" d="M386.756,338.139c0.721-0.481,1.061-1.164,1.07-2.021c3.139,1.958,4.104,5.451,5.771,8.406
	c0.875,1.55-0.064,2.094-1.625,1.403C390.235,343.331,388.495,340.735,386.756,338.139z"/>
<path fill="#74909B" d="M204.884,339.866c0.149,0.828,0.273,1.669,1.129,2.119c-0.446,2.577-2.539,4.095-3.913,6.074
	c-0.774,0.314-1.663,2.494-2.258-0.139c0.171-1.893,0.686-3.639,2.133-4.983C203.549,342.485,203.682,340.67,204.884,339.866z"/>
<path fill="#436370" d="M199.842,347.922c0.697,0.964,1.498,0.226,2.258,0.139c-1.02,3.075-3.407,5.245-5.187,7.816
	C194.61,352.018,198.018,350.26,199.842,347.922z"/>
</svg>
